<svg width="535" height="205" viewBox="0 0 535 205" fill="none" xmlns="http://www.w3.org/2000/svg">
<path d="M532.383 57.9819C534.394 69.9468 529.271 82.7552 517.78 95.7638C506.3 108.76 488.621 121.766 465.999 134.023C420.769 158.53 356.085 179.883 282.676 192.219C209.267 204.555 141.156 205.516 90.4001 197.139C65.0144 192.949 44.0554 186.437 28.9581 177.906C13.8467 169.368 4.81876 158.937 2.80817 146.972C0.797572 135.008 5.92038 122.199 17.411 109.191C28.8909 96.194 46.5702 83.1888 69.1921 70.9317C114.422 46.4248 179.106 25.0712 252.515 12.7354C325.925 0.399614 394.035 -0.561759 444.791 7.81549C470.177 12.0054 491.136 18.5177 506.233 27.0482C521.345 35.5866 530.373 46.017 532.383 57.9819Z" stroke="#4271F9" stroke-width="3"/>
</svg>
